# xmcd CD database file
#
# Track frame offsets:
#	150
#	22148
#	39090
#	53311
#	75179
#	92917
#	135846
#	152973
#	170400
#	184204
#	204172
#	220225
#	240339
#	258929
#	276306
#	288761
#	313204
#	331859
#	353062
#
# Disc length: 4963 seconds
#
# Revision: 2
# Processed by: cddbd v1.4b41PL1 Copyright (c) Steve Scherf et al.
# Submitted via: Feurio! 1.50.2ß - http://www.feurio.com
#
DISCID=f9136113
DTITLE=Various Artist - Rettet das Liedgut
DYEAR=1900
DGENRE=
TTITLE0=Michael Jackson - Billie Jean
TTITLE1=Prince - Kiss
TTITLE2=Madness - Our House
TTITLE3=Pet Shop Boys - West End Girl
TTITLE4=Sandra - Everlasting love
TTITLE5=Jimmy Sommerville - Smalltown Boy
TTITLE6=OMD - Locomotion
TTITLE7=Talk Talk - It's my life
TTITLE8=Yazoo - Don't go
TTITLE9=Talk Talk - Life's what you make it
TTITLE10=Erasure - Sometime
TTITLE11=Jimmy Sommerville - I never can't say goodby
TTITLE12=Duran Duran - is there something I should know
TTITLE13=Huey Lewis and The News - The power of love
TTITLE14=Fun Boy Three and Bananarama - It ain't what you do it's the...
TTITLE15=The Weather Girls - It' raining mens
TTITLE16=K.C.& The Sunshine Band - Give it up
TTITLE17=Duran Duran - Rio
TTITLE18=Michael Jackson - Black and With
EXTD=
EXTT0=
EXTT1=
EXTT2=
EXTT3=
EXTT4=
EXTT5=
EXTT6=
EXTT7=
EXTT8=
EXTT9=
EXTT10=
EXTT11=
EXTT12=
EXTT13=
EXTT14=
EXTT15=
EXTT16=
EXTT17=
EXTT18=
PLAYORDER=
